<svg height="202px" width="202px" version="1.1" id="Layer_1" xmlns="http://www.w3.org/2000/svg"
    xmlns:xlink="http://www.w3.org/1999/xlink" viewBox="0 0 511.999 511.999" xml:space="preserve"
    fill="#000000"><g id="SVGRepo_bgCarrier" stroke-width="0"></g>
    <g id="SVGRepo_tracerCarrier" stroke-linecap="round" stroke-linejoin="round"></g>
    <g id="SVGRepo_iconCarrier"> <path id="SVGCleanerId_0" style="fill:#c8e7ea;"
        d="M93.199,311.57c3.632,8.634,12.085,14.248,21.451,14.248h288.743v46.544h23.273 c12.853,0,23.273,10.42,23.273,23.273v-93.089V162.909V46.547h-23.273c-12.853,0-23.273-10.42-23.273-23.273V62.06H23.272 c-7.795,0-15.073,3.905-19.386,10.397c-4.312,6.495-5.087,14.715-2.065,21.901L93.199,311.57z"></path>
        <g> <path style="fill:#bccbdc;"
            d="M426.666,46.547h23.273h38.788c12.853,0,23.273-10.42,23.273-23.273 c0-12.851-10.42-23.273-23.273-23.273h-62.061c-12.853,0-23.273,10.422-23.273,23.273 C403.393,36.127,413.813,46.547,426.666,46.547z"></path>
            <path style="fill:#bccbdc;"
                d="M426.666,372.362h-23.273H349.09H164.46H71.369c-12.853,0-23.273,10.42-23.273,23.273 c0,12.853,10.42,23.273,23.273,23.273h27.276h25.512h40.304h40.304h25.512h53h25.512h40.304h40.304h25.512h11.76 c12.853,0,23.273-10.42,23.273-23.273C449.939,382.782,439.519,372.362,426.666,372.362z"></path> </g>
        <g> <path style="fill:#FFFFFF;"
            d="M325.817,442.18c0,12.833,10.439,23.273,23.273,23.273c12.833,0,23.273-10.44,23.273-23.273 s-10.44-23.273-23.273-23.273C336.256,418.907,325.817,429.347,325.817,442.18z"></path>
            <path style="fill:#FFFFFF;"
                d="M141.187,442.18c0,12.833,10.439,23.273,23.273,23.273c12.833,0,23.273-10.44,23.273-23.273 s-10.44-23.273-23.273-23.273C151.626,418.907,141.187,429.347,141.187,442.18z"></path> </g>
        <path style="fill:#898890;"
            d="M349.09,418.907c12.833,0,23.273,10.44,23.273,23.273s-10.44,23.273-23.273,23.273 c-12.834,0-23.273-10.44-23.273-23.273S336.256,418.907,349.09,418.907h-40.304h-25.512c-2.583,7.284-4.003,15.115-4.003,23.273 c0,38.499,31.319,69.818,69.818,69.818s69.818-31.319,69.818-69.818c0-8.158-1.42-15.988-4.003-23.273h-25.512H349.09z"></path>
        <path style="fill:#57565C;"
            d="M164.46,418.907c12.833,0,23.273,10.44,23.273,23.273s-10.44,23.273-23.273,23.273 c-12.834,0-23.273-10.44-23.273-23.273S151.626,418.907,164.46,418.907h-40.304H98.645c-2.583,7.284-4.003,15.115-4.003,23.273 c0,38.499,31.319,69.818,69.818,69.818s69.818-31.319,69.818-69.818c0-8.158-1.42-15.988-4.003-23.273h-25.512H164.46z"></path>
        <path id="SVGCleanerId_1" style="fill:#d2f3f4;"
            d="M426.666,46.547c-12.853,0-23.273-10.42-23.273-23.273V62.06H255.999v263.758 h147.394v46.544h23.273c12.853,0,23.273,10.42,23.273,23.273v-93.089V162.909V46.547H426.666z"></path>
        <g> <path id="SVGCleanerId_0_1_" style="fill:#c8e7ea;"
            d="M93.199,311.57c3.632,8.634,12.085,14.248,21.451,14.248h288.743v46.544 h23.273c12.853,0,23.273,10.42,23.273,23.273v-93.089V162.909V46.547h-23.273c-12.853,0-23.273-10.42-23.273-23.273V62.06H23.272 c-7.795,0-15.073,3.905-19.386,10.397c-4.312,6.495-5.087,14.715-2.065,21.901L93.199,311.57z"></path> </g>
        <g> <path id="SVGCleanerId_1_1_" style="fill:#d2f3f4;"
            d="M426.666,46.547c-12.853,0-23.273-10.42-23.273-23.273V62.06H255.999 v263.758h147.394v46.544h23.273c12.853,0,23.273,10.42,23.273,23.273v-93.089V162.909V46.547H426.666z"></path> </g> </g></svg>